<svg width="90" height="90" viewBox="0 0 90 90" fill="none" xmlns="http://www.w3.org/2000/svg">
<circle cx="45" cy="45" r="45" fill="url(#paint0_radial)"/>
<path d="M28.5411 36.0536C28.584 36.0491 28.627 36.0428 28.6708 36.041C29.4884 36.0044 30.3069 35.9704 31.1245 35.9328C32.2606 35.8818 33.3976 35.829 34.5336 35.7763C34.8136 35.7637 35.0936 35.7396 35.3736 35.7405C35.9443 35.7405 36.4855 35.5991 37.0062 35.3862C37.5089 35.1814 38 34.947 38.4938 34.7207C38.9831 34.4971 39.4706 34.2689 39.9957 34.1383C40.2256 34.0811 40.4582 34.0462 40.6961 34.0471C40.8151 34.048 40.935 34.0203 41.054 34.0203C42.1042 34.0265 43.0497 34.3566 43.9031 34.9586C44.8611 35.634 45.549 36.5339 46.0473 37.5859C46.3067 38.1343 46.4901 38.7086 46.6305 39.299C46.9347 40.5782 47.0662 41.8761 47.0671 43.1884C47.0671 43.8701 47.0313 44.5517 46.9383 45.2271C46.8882 45.5912 46.8059 45.9508 46.7361 46.3122C46.2987 48.5745 46.118 50.8573 46.1985 53.1608C46.2504 54.6332 46.4087 56.094 46.6806 57.5414C46.6896 57.5879 46.6941 57.6353 46.703 57.6997C46.6431 57.6854 46.5957 57.6773 46.5518 57.6621C44.3834 56.9331 42.6623 55.6333 41.4699 53.6635C41.1747 53.176 40.9887 52.6411 40.8151 52.1017C40.4823 51.0702 40.2507 50.0147 40.0807 48.9439C39.9107 47.8731 39.8401 46.7934 39.7828 45.7128C39.7363 44.8183 39.688 43.9237 39.6146 43.031C39.5127 41.7956 39.2863 40.5835 38.8865 39.4063C38.3247 37.7523 37.1743 36.7799 35.4774 36.4328C35.2743 36.3917 35.0641 36.3747 34.8557 36.3649C33.5273 36.3031 32.1989 36.2477 30.8705 36.1886C30.1405 36.1564 29.4106 36.1233 28.6797 36.0902C28.6323 36.0884 28.584 36.084 28.5366 36.0813C28.5375 36.0732 28.5393 36.0634 28.5411 36.0536Z" fill="#291F39"/>
<path d="M59.1559 64.6135C59.1174 64.6028 59.079 64.5939 59.0405 64.5822C56.5752 63.8657 54.133 63.091 51.741 62.1929C50.7239 61.8109 49.7221 61.3985 48.7488 60.9298C47.992 60.5657 47.3086 60.1104 46.6466 59.622C45.8791 59.0557 45.125 58.4761 44.4344 57.832C43.2518 56.7281 42.3501 55.4552 41.6533 54.0588C41.2042 53.158 40.8151 52.2384 40.5539 51.2768C40.3589 50.5585 40.2515 49.8303 40.2828 49.0896C40.3025 48.6155 40.3911 48.1504 40.5387 47.6959C40.6693 47.2934 40.8062 46.8909 40.9645 46.4973C41.138 46.067 41.3706 45.6582 41.6381 45.269C41.9592 44.8012 42.3412 44.3727 42.7196 43.9433C43.6651 42.8708 44.6795 41.8528 45.7109 40.8473C47.2987 39.3007 48.9268 37.7907 50.6238 36.3415C51.3018 35.7627 52.0022 35.2054 52.6946 34.641C54.0803 33.5112 55.2101 32.198 56.1341 30.7354C56.5716 30.0439 56.958 29.331 57.2657 28.5831C57.2702 28.5715 57.2765 28.5608 57.2872 28.5366C57.3158 28.5706 57.3409 28.5983 57.3632 28.6279C57.9358 29.373 58.3821 30.1772 58.7417 31.0226C59.1353 31.9475 59.4001 32.9029 59.5307 33.8869C59.6336 34.658 59.6363 35.43 59.5772 36.2046C59.4887 37.3649 59.1139 38.4508 58.5879 39.5028C57.696 41.2856 56.6047 42.9638 55.3174 44.5337C54.5839 45.4283 53.8074 46.2942 53.0408 47.1673C52.2652 48.0493 51.495 48.934 50.7767 49.8563C50.5477 50.1497 50.2937 50.4279 50.0468 50.7088C49.3392 51.5156 48.8597 52.4209 48.6075 53.4246C48.5565 53.6277 48.4858 53.828 48.4491 54.0329C48.3856 54.3853 48.399 54.7423 48.4187 55.0983C48.4661 55.9678 48.6799 56.8051 49.0243 57.6164C49.3938 58.485 49.9045 59.274 50.6425 59.9306C51.1283 60.3636 51.6775 60.7259 52.2384 61.0729C53.4756 61.8387 54.77 62.5194 56.0903 63.1599C57.0797 63.6403 58.0834 64.0974 59.0799 64.5652C59.1067 64.5778 59.1327 64.5903 59.1595 64.6019C59.1586 64.6064 59.1577 64.61 59.1559 64.6135Z" fill="#291F39"/>
<defs>
<radialGradient id="paint0_radial" cx="0" cy="0" r="1" gradientUnits="userSpaceOnUse" gradientTransform="translate(45 45) rotate(90) scale(45)">
<stop stop-color="#32D5E8" stop-opacity="0.6"/>
<stop offset="1" stop-color="#32D5E8" stop-opacity="0"/>
</radialGradient>
</defs>
</svg>
