<svg width="81" height="94" viewBox="0 0 81 94" fill="none" xmlns="http://www.w3.org/2000/svg">
<path d="M0.330236 20.0004C0.447828 20.0004 0.541905 19.9769 0.659496 19.9769C2.77615 19.8829 4.86928 19.7888 6.98593 19.6947C9.92572 19.5536 12.842 19.436 15.7818 19.2949C16.5109 19.2714 17.2164 19.2008 17.9455 19.2008C19.4271 19.2008 20.8147 18.8245 22.1553 18.2836C23.4488 17.7662 24.7188 17.1547 25.9887 16.5668C27.2587 15.9788 28.5052 15.3909 29.8693 15.0616C30.4572 14.9205 31.0687 14.8264 31.6802 14.8264C31.9859 14.8264 32.2917 14.7559 32.5974 14.7559C35.302 14.7794 37.7479 15.626 39.9351 17.1783C42.4045 18.9186 44.1684 21.2469 45.4619 23.9515C46.1205 25.3626 46.6143 26.8443 46.9671 28.373C47.7432 31.6656 48.096 35.0287 48.096 38.4153C48.096 40.1792 48.0019 41.9195 47.7667 43.6834C47.6491 44.6242 47.414 45.5414 47.2493 46.4821C46.1204 52.3147 45.6501 58.1942 45.8617 64.1444C46.0029 67.9308 46.4027 71.7173 47.1082 75.4332C47.1317 75.5508 47.1317 75.6684 47.1553 75.833C46.9906 75.786 46.873 75.786 46.7554 75.7389C41.1581 73.8575 36.7131 70.4943 33.6557 65.4144C32.9031 64.1679 32.4093 62.7803 31.9624 61.3927C31.1157 58.7352 30.5043 56.007 30.0574 53.2554C29.6106 50.5037 29.4459 47.7051 29.2813 44.9299C29.1637 42.6251 29.0461 40.3203 28.858 38.0155C28.5993 34.8405 28.0113 31.7126 26.9765 28.6552C25.5184 24.3984 22.5551 21.8819 18.1807 20.9882C17.6633 20.8706 17.1223 20.8471 16.5814 20.8236C13.1477 20.659 9.73757 20.5179 6.3039 20.3767C4.42243 20.2827 2.54096 20.2121 0.659496 20.118C0.541905 20.118 0.424313 20.0945 0.283203 20.0945C0.33024 20.0475 0.330236 20.024 0.330236 20.0004Z" fill="white"/>
<path d="M79.2813 93.6594C79.1872 93.6359 79.0931 93.6124 78.9755 93.5889C72.6256 91.7309 66.3227 89.7554 60.1373 87.4271C57.5033 86.4393 54.9398 85.381 52.4233 84.1815C50.4713 83.2408 48.7074 82.0649 46.9906 80.8184C45.015 79.3603 43.063 77.8551 41.2756 76.2088C38.2182 73.3631 35.8899 70.0705 34.1025 66.4722C32.9501 64.1439 31.9388 61.7685 31.2568 59.2991C30.7629 57.4412 30.4807 55.5597 30.5513 53.6547C30.5983 52.4318 30.8335 51.2323 31.2098 50.0564C31.539 49.0216 31.8918 47.9868 32.3151 46.9755C32.762 45.8701 33.3499 44.8118 34.0555 43.8005C34.8786 42.6011 35.8664 41.4957 36.8542 40.3904C39.3001 37.6152 41.9106 35.0047 44.5682 32.4176C48.6604 28.4195 52.8702 24.539 57.2446 20.7996C58.9849 19.3179 60.7958 17.8598 62.5832 16.4252C66.158 13.5089 69.0743 10.1223 71.4497 6.35933C72.5785 4.57193 73.5663 2.7375 74.3659 0.808996C74.3895 0.785478 74.3895 0.761961 74.413 0.691406C74.4835 0.78548 74.5541 0.856036 74.6011 0.926591C76.0828 2.85509 77.2352 4.92471 78.1524 7.11191C79.1637 9.48727 79.8457 11.9567 80.1985 14.4967C80.4572 16.4957 80.4807 18.4713 80.3161 20.4703C80.0809 23.4572 79.1166 26.2558 77.7526 28.984C75.4478 33.5936 72.6491 37.9209 69.3095 41.9661C67.428 44.2709 65.4054 46.5051 63.4299 48.7629C61.4308 51.0442 59.4318 53.3255 57.5974 55.7008C57.0094 56.4534 56.3509 57.1825 55.7159 57.9115C53.8814 59.9812 52.6585 62.333 52 64.92C51.8589 65.4374 51.6942 65.9548 51.6002 66.4957C51.4355 67.4129 51.4826 68.3302 51.5296 69.2474C51.6472 71.4816 52.2116 73.6453 53.0818 75.7384C54.0461 77.9727 55.3631 80.0188 57.2446 81.7121C58.491 82.8175 59.9021 83.7582 61.3603 84.6519C64.5588 86.6274 67.8984 88.3913 71.285 90.0376C73.8485 91.2841 76.4356 92.46 78.9991 93.6594C79.0696 93.6829 79.1402 93.73 79.2107 93.7535C79.3048 93.6359 79.3048 93.6594 79.2813 93.6594Z" fill="white"/>
</svg>
